<?xml version="1.0" encoding="utf-8"?>
<!-- Generator: Adobe Illustrator 16.0.0, SVG Export Plug-In . SVG Version: 6.00 Build 0)  -->
<!DOCTYPE svg PUBLIC "-//W3C//DTD SVG 1.1//EN" "http://www.w3.org/Graphics/SVG/1.1/DTD/svg11.dtd">
<svg version="1.1" id="Calque_1" xmlns="http://www.w3.org/2000/svg" xmlns:xlink="http://www.w3.org/1999/xlink" x="0px" y="0px"
	 width="595.28px" height="841.89px" viewBox="0 0 595.28 841.89" enable-background="new 0 0 595.28 841.89" xml:space="preserve">
<g>
	<g>
		<path d="M127.023,407.68c23.911-33.054,47.823-66.108,71.734-99.162c33.399-46.169,66.799-92.339,100.198-138.509
			c3.303-4.566,6.606-9.132,9.91-13.699c7.203-9.958,1.735-25.039-8.072-30.784c-11.359-6.654-23.611-1.844-30.784,8.072
			c-23.911,33.054-47.823,66.108-71.734,99.162C164.875,278.93,131.476,325.1,98.076,371.27c-3.303,4.566-6.606,9.132-9.91,13.699
			c-7.203,9.958-1.735,25.039,8.072,30.784C107.598,422.406,119.85,417.596,127.023,407.68L127.023,407.68z"/>
	</g>
</g>
<g>
	<g>
		<path d="M270.009,156.356c24.191,31.4,48.382,62.8,72.572,94.201c36.298,47.115,72.596,94.229,108.894,141.344
			c5.787,7.512,11.574,15.023,17.361,22.535c3.762,4.883,7.242,8.633,13.446,10.34c5.808,1.598,12.142,0.775,17.338-2.269
			c9.569-5.605,15.578-21.041,8.071-30.784c-24.19-31.4-48.381-62.8-72.572-94.201c-36.298-47.115-72.595-94.229-108.893-141.344
			c-5.787-7.512-11.574-15.023-17.361-22.535c-3.762-4.883-7.242-8.634-13.447-10.34c-5.808-1.598-12.141-0.776-17.337,2.268
			C268.511,131.178,262.503,146.613,270.009,156.356L270.009,156.356z"/>
	</g>
</g>
</svg>
