<?xml version="1.0" encoding="utf-8"?>
<!-- Generator: Adobe Illustrator 16.0.0, SVG Export Plug-In . SVG Version: 6.00 Build 0)  -->
<!DOCTYPE svg PUBLIC "-//W3C//DTD SVG 1.1//EN" "http://www.w3.org/Graphics/SVG/1.1/DTD/svg11.dtd">
<svg version="1.1" id="Capa_1" xmlns="http://www.w3.org/2000/svg" xmlns:xlink="http://www.w3.org/1999/xlink" x="0px" y="0px"
	 width="1024px" height="768px" viewBox="0 0 1024 768" enable-background="new 0 0 1024 768" xml:space="preserve">
<path fill="#797979" d="M820.168,383.511c0,174.147-140.971,315.319-314.864,315.319V68.192
	C679.197,68.192,820.168,209.365,820.168,383.511z"/>
<path fill="#C0C0C0" d="M505.304,68.192V698.83c-173.893,0-314.864-141.172-314.864-315.319
	C190.439,209.365,331.411,68.192,505.304,68.192z"/>
<rect x="355.265" y="259.097" fill="#EBEBEB" width="286.972" height="295.94"/>
<path fill="#FC490B" d="M320.796,210.643l27.4,350.535c0.412,5.266,3.976,9.756,9.008,11.35l144.181,45.713
	c2.55,0.807,5.287,0.807,7.837,0l144.181-45.713c5.034-1.594,8.598-6.084,9.009-11.35l27.399-350.535
	c0.59-7.537-5.367-13.976-12.924-13.976H333.723C326.165,196.668,320.209,203.106,320.796,210.643z M619.544,319.402H440.972
	l5.39,49.697H615.66l-11.076,141.677l-99.28,31.477l-99.281-31.477l-5.787-74.018h52.111v36.309l54.348,14.584l54.025-14.584
	l4.189-57.863H398.55l-11.045-141.306h235.593L619.544,319.402z"/>
</svg>
