<?xml version="1.0" encoding="utf-8"?>
<!-- Generator: Adobe Illustrator 16.0.0, SVG Export Plug-In . SVG Version: 6.00 Build 0)  -->
<!DOCTYPE svg PUBLIC "-//W3C//DTD SVG 1.1//EN" "http://www.w3.org/Graphics/SVG/1.1/DTD/svg11.dtd">
<svg version="1.1" id="Capa_1" xmlns="http://www.w3.org/2000/svg" xmlns:xlink="http://www.w3.org/1999/xlink" x="0px" y="0px"
	 width="1024px" height="768px" viewBox="0 0 1024 768" enable-background="new 0 0 1024 768" xml:space="preserve">
<path fill="#797979" d="M820.168,383.511c0,174.147-140.971,315.319-314.864,315.319V68.192
	C679.197,68.192,820.168,209.365,820.168,383.511z"/>
<path fill="#C0C0C0" d="M505.304,68.192V698.83c-173.893,0-314.864-141.172-314.864-315.319
	C190.439,209.365,331.411,68.192,505.304,68.192z"/>
<g>
	<path fill="#FFBD2E" d="M570.806,545.989h-43.809l-37.318-122.232H377.182l-35.696,122.232H299.3l111.415-378.593h44.891
		L570.806,545.989z M479.944,383.734l-47.054-153.6l-45.431,153.6H479.944z"/>
	<path fill="#FFBD2E" d="M662.736,184.162c0,6.125-2.163,11.358-6.49,15.684c-4.327,4.314-9.465,6.477-15.415,6.477
		c-5.948,0-11.182-2.244-15.684-6.76c-4.516-4.503-6.761-9.642-6.761-15.414c0-5.774,2.245-10.912,6.761-15.429
		c4.502-4.502,9.735-6.76,15.684-6.76c5.95,0,11.088,2.163,15.415,6.49C660.586,172.804,662.736,178.037,662.736,184.162z
		 M659.505,545.989h-38.941V275.024h38.941V545.989z"/>
</g>
</svg>
