<?xml version="1.0" encoding="utf-8"?>
<!-- Generator: Adobe Illustrator 16.0.0, SVG Export Plug-In . SVG Version: 6.00 Build 0)  -->
<!DOCTYPE svg PUBLIC "-//W3C//DTD SVG 1.1//EN" "http://www.w3.org/Graphics/SVG/1.1/DTD/svg11.dtd">
<svg version="1.1" id="Capa_1" xmlns="http://www.w3.org/2000/svg" xmlns:xlink="http://www.w3.org/1999/xlink" x="0px" y="0px"
	 width="1024px" height="768px" viewBox="0 0 1024 768" enable-background="new 0 0 1024 768" xml:space="preserve">
<path fill="#797979" d="M820.168,383.511c0,174.147-140.971,315.319-314.864,315.319V68.192
	C679.197,68.192,820.168,209.365,820.168,383.511z"/>
<path fill="#C0C0C0" d="M505.304,68.192V698.83c-173.893,0-314.864-141.172-314.864-315.319
	C190.439,209.365,331.411,68.192,505.304,68.192z"/>
<path fill="#303C42" d="M505.303,250.859c-133.096,0-237.353,52.133-237.353,118.676s104.257,118.677,237.353,118.677
	c133.095,0,237.353-52.134,237.353-118.677S638.398,250.859,505.303,250.859z"/>
<path fill="#82B1FF" d="M505.303,468.433c-56.867,0-109.345-10.596-148.586-27.512l7.966-31.827h34.691
	c26.153,0,48.851-17.723,55.205-43.104l1.729-6.963c2.965-11.821,0.357-24.115-7.137-33.716
	c-7.505-9.608-18.785-15.114-30.974-15.114h-41.461c-4.54,0-8.489,3.09-9.591,7.494l-28.63,114.523
	c-31.548-17.201-50.786-39.134-50.786-62.68c0-53.611,99.641-98.897,217.574-98.897s217.574,45.286,217.574,98.897
	S623.236,468.433,505.303,468.433z"/>
<path opacity="0.2" fill="#FFFFFF" enable-background="new    " d="M297.619,379.425c0-53.61,99.641-98.896,217.574-98.896
	c82.588,0,156.059,22.244,192.767,53.968c-31.898-36.898-111.735-63.858-202.657-63.858c-117.933,0-217.574,45.286-217.574,98.897
	c0,15.782,8.799,30.798,23.999,44.191C302.662,402.984,297.619,391.418,297.619,379.425z"/>
<path id="SVGCleanerId_0" fill="#82B1FF" d="M369.629,389.315l14.835-59.339h33.734c6.046,0,11.657,2.733,15.375,7.505
	c3.728,4.771,5.022,10.875,3.544,16.757l-1.729,6.963c-4.144,16.554-18.95,28.114-36.015,28.114H369.629z"/>
<g>
	<path id="SVGCleanerId_0_1_" fill="#82B1FF" d="M369.629,389.315l14.835-59.339h33.734c6.046,0,11.657,2.733,15.375,7.505
		c3.728,4.771,5.022,10.875,3.544,16.757l-1.729,6.963c-4.144,16.554-18.95,28.114-36.015,28.114H369.629z"/>
</g>
<g>
	<path fill="#303C42" d="M645.661,310.198h-41.462c-4.539,0-8.488,3.09-9.59,7.494l-19.73,78.896
		c-0.04,0.145-0.068,0.28-0.107,0.416l-9.831,39.364c-1.333,5.292,1.893,10.663,7.194,11.986c0.803,0.202,1.613,0.299,2.404,0.299
		c4.434,0,8.461-2.994,9.581-7.494l8.026-32.064h34.691c26.153,0,48.85-17.723,55.204-43.104l1.729-6.963
		c2.965-11.821,0.356-24.115-7.138-33.716C669.131,315.703,657.85,310.198,645.661,310.198z M664.582,354.238l-1.729,6.963
		c-4.143,16.554-18.949,28.114-36.015,28.114h-29.746l14.835-59.339h33.734c6.046,0,11.658,2.733,15.375,7.505
		C664.766,342.252,666.059,348.356,664.582,354.238z"/>
	<path fill="#303C42" d="M558.615,322.27c-6.25-7.668-15.502-12.072-25.4-12.072h-31.352l3.276-18.012
		c0.986-5.371-2.579-10.519-7.958-11.493c-5.341-0.986-10.527,2.578-11.494,7.957l-19.78,108.788
		c-0.985,5.369,2.579,10.518,7.958,11.492c0.599,0.116,1.187,0.164,1.777,0.164c4.694,0,8.856-3.341,9.716-8.121l12.908-70.996
		h34.948c3.921,0,7.581,1.738,10.054,4.78c2.474,3.043,3.438,6.983,2.637,10.827l-10.729,51.611
		c-1.111,5.341,2.327,10.576,7.678,11.696c0.676,0.136,1.352,0.204,2.018,0.204c4.588,0,8.701-3.207,9.679-7.881l10.729-51.613
		C567.287,339.914,564.854,329.948,558.615,322.27z"/>
</g>
<linearGradient id="SVGID_1_" gradientUnits="userSpaceOnUse" x1="-43.5405" y1="127.9255" x2="-31.0131" y2="133.7689" gradientTransform="matrix(32 0 0 32 1698.166 -3817.5671)">
	<stop  offset="0" style="stop-color:#FFFFFF;stop-opacity:0.2"/>
	<stop  offset="1" style="stop-color:#FFFFFF;stop-opacity:0"/>
</linearGradient>
<path fill="url(#SVGID_1_)" d="M505.303,250.859c-133.096,0-237.353,52.133-237.353,118.676s104.257,118.677,237.353,118.677
	c133.095,0,237.353-52.134,237.353-118.677S638.398,250.859,505.303,250.859z"/>
</svg>
