<?xml version="1.0" encoding="utf-8"?>
<!-- Generator: Adobe Illustrator 16.0.0, SVG Export Plug-In . SVG Version: 6.00 Build 0)  -->
<!DOCTYPE svg PUBLIC "-//W3C//DTD SVG 1.1//EN" "http://www.w3.org/Graphics/SVG/1.1/DTD/svg11.dtd">
<svg version="1.1" id="Capa_1" xmlns="http://www.w3.org/2000/svg" xmlns:xlink="http://www.w3.org/1999/xlink" x="0px" y="0px" width="70px" height="70px" viewBox="0 0 1024 768" enable-background="new 0 0 1024 768" xml:space="preserve">
<path fill="#797979" d="M820.168,383.511c0,174.147-140.971,315.319-314.864,315.319V68.192
	C679.197,68.192,820.168,209.365,820.168,383.511z"/>
<path fill="#C0C0C0" d="M505.304,68.192V698.83c-173.893,0-314.864-141.172-314.864-315.319
	C190.439,209.365,331.411,68.192,505.304,68.192z"/>
<rect x="355.265" y="259.097" fill="#EBEBEB" width="286.972" height="295.94"/>
<g transform="translate(1 1)">
	<polygon fill="#FFE100" points="333.974,552.84 674.635,552.84 674.635,212.181 333.974,212.181 	"/>
	<polygon fill="#FFA800" points="657.014,552.84 674.635,552.84 674.635,212.181 657.014,212.181 	"/>
	<polygon fill="#FFFFFF" points="333.974,552.84 351.594,552.84 351.594,212.181 333.974,212.181 	"/>
	<path d="M674.635,558.692H333.974c-3.231,0-5.851-2.619-5.851-5.85V212.181c0-3.231,2.619-5.851,5.851-5.851h340.661
		c3.231,0,5.851,2.619,5.851,5.851v340.661C680.485,556.073,677.866,558.692,674.635,558.692z M339.824,546.99h328.96V218.031
		h-328.96V546.99z"/>
	<path d="M598.279,529.324c-29.135,0-52.838-23.703-52.838-52.838c0-3.232,2.619-5.852,5.85-5.852c3.231,0,5.852,2.619,5.852,5.852
		c0,22.682,18.454,41.137,41.137,41.137c22.684,0,41.138-18.453,41.138-41.137s-18.454-41.139-41.138-41.139
		c-29.135,0-52.838-23.703-52.838-52.837c0-29.136,23.703-52.838,52.838-52.838c29.136,0,52.839,23.703,52.839,52.838
		c0,3.231-2.619,5.851-5.851,5.851c-3.23,0-5.851-2.619-5.851-5.851c0-22.683-18.454-41.138-41.138-41.138
		c-22.683,0-41.137,18.455-41.137,41.138s18.454,41.138,41.137,41.138c29.135,0,52.839,23.703,52.839,52.838
		S627.414,529.324,598.279,529.324z"/>
	<path d="M474.937,529.324c-29.134,0-52.838-23.703-52.838-52.838c0-3.232,2.619-5.852,5.851-5.852c3.231,0,5.851,2.619,5.851,5.852
		c0,22.682,18.453,41.137,41.137,41.137s41.137-18.453,41.137-41.137V335.524c0-3.231,2.62-5.851,5.851-5.851
		c3.231,0,5.851,2.619,5.851,5.851v140.961C527.774,505.621,504.072,529.324,474.937,529.324z"/>
</g>
</svg>
