<?xml version="1.0" encoding="utf-8"?>
<!-- Generator: Adobe Illustrator 16.0.0, SVG Export Plug-In . SVG Version: 6.00 Build 0)  -->
<!DOCTYPE svg PUBLIC "-//W3C//DTD SVG 1.1//EN" "http://www.w3.org/Graphics/SVG/1.1/DTD/svg11.dtd">
<svg version="1.1" id="Capa_1" xmlns="http://www.w3.org/2000/svg" xmlns:xlink="http://www.w3.org/1999/xlink" x="0px" y="0px"
	 width="595.281px" height="841.891px" viewBox="0 0 595.281 841.891" enable-background="new 0 0 595.281 841.891"
	 xml:space="preserve">
<path fill="#878787" d="M595.22,351.515c0,164.621-133.26,298.07-297.64,298.07v-79c20.45,0,37.03-16.58,37.03-37.029
	c0-20.45-16.58-37.03-37.03-37.03v-48.71c21.99,0,43.98,8.39,60.69,25.149c5.41,5.41,12.521,8.171,19.63,8.171
	c7.11,0,14.221-2.761,19.63-8.171c10.82-10.819,10.82-28.43,0-39.26c-27.529-27.63-63.739-41.45-99.95-41.47v-50.57
	c49.22-0.02,98.45,18.71,135.92,56.18c5.409,5.41,12.52,8.17,19.63,8.17c7.1,0,14.21-2.76,19.62-8.17
	c10.83-10.82,10.83-28.44,0-39.36c-48.271-48.33-111.73-72.5-175.17-72.5v-52.31c76.83,0,153.68,29.26,212.2,87.78
	c5.42,5.41,12.53,8.17,19.63,8.17c7.11,0,14.221-2.76,19.631-8.17c10.83-10.83,10.83-28.44,0-39.37
	c-69.341-69.28-160.4-103.93-251.46-103.93V53.445C461.96,53.445,595.22,186.896,595.22,351.515z"/>
<path fill="#C0C0C0" d="M549.041,321.455c-5.41,5.41-12.521,8.17-19.631,8.17c-7.1,0-14.21-2.76-19.63-8.17
	c-58.52-58.52-135.37-87.78-212.2-87.78v52.31c63.44,0,126.9,24.17,175.17,72.5c10.83,10.92,10.83,28.54,0,39.36
	c-5.41,5.41-12.521,8.17-19.62,8.17c-7.11,0-14.221-2.76-19.63-8.17c-37.471-37.47-86.7-56.2-135.92-56.18v50.57
	c36.21,0.02,72.42,13.84,99.95,41.47c10.82,10.83,10.82,28.44,0,39.26c-5.409,5.41-12.52,8.171-19.63,8.171
	c-7.109,0-14.22-2.761-19.63-8.171c-16.71-16.76-38.7-25.149-60.69-25.149v48.71c20.45,0,37.03,16.58,37.03,37.03
	c0,20.449-16.58,37.029-37.03,37.029v79c-164.38,0-297.64-133.449-297.64-298.07c0-164.62,133.26-298.07,297.64-298.07v124.71
	c91.06,0,182.12,34.65,251.46,103.93C559.871,293.015,559.871,310.625,549.041,321.455z"/>
<g>
	<g>
		<path fill="#E30613" stroke="#982118" stroke-miterlimit="10" d="M472.75,397.845c-5.41,5.41-12.521,8.17-19.62,8.17
			c-7.11,0-14.221-2.76-19.63-8.17c-37.471-37.47-86.7-56.2-135.92-56.18c-49.19,0.01-98.37,18.73-135.81,56.18
			c-10.93,10.82-28.55,10.82-39.37,0c-10.82-10.93-10.82-28.54,0-39.36c48.28-48.33,111.72-72.5,175.18-72.5
			c63.44,0,126.9,24.17,175.17,72.5C483.581,369.405,483.581,387.025,472.75,397.845z"/>
		<path fill="#E30613" stroke="#982118" stroke-miterlimit="10" d="M397.53,472.965c-5.409,5.41-12.52,8.171-19.63,8.171
			c-7.109,0-14.22-2.761-19.63-8.171c-16.71-16.76-38.7-25.149-60.69-25.149s-43.98,8.39-60.69,25.149
			c-10.93,10.82-28.55,10.82-39.37,0c-10.82-10.93-10.82-28.539,0-39.359c27.59-27.59,63.83-41.39,100.06-41.37
			c36.21,0.02,72.42,13.84,99.95,41.47C408.35,444.535,408.35,462.146,397.53,472.965z"/>
		<circle fill="#E30613" stroke="#982118" stroke-miterlimit="10" cx="297.58" cy="533.556" r="37.03"/>
		<path fill="#E30613" stroke="#982118" stroke-miterlimit="10" d="M549.041,321.455c-5.41,5.41-12.521,8.17-19.631,8.17
			c-7.1,0-14.21-2.76-19.63-8.17c-58.52-58.52-135.37-87.78-212.2-87.78c-76.83,0-153.64,29.26-212.1,87.78
			c-10.93,10.82-28.54,10.82-39.37,0c-10.82-10.93-10.82-28.55,0-39.37c69.34-69.28,160.41-103.93,251.47-103.93
			s182.12,34.65,251.46,103.93C559.871,293.015,559.871,310.625,549.041,321.455z"/>
	</g>
</g>
</svg>
