<?xml version="1.0" encoding="utf-8"?>
<!-- Generator: Adobe Illustrator 16.0.0, SVG Export Plug-In . SVG Version: 6.00 Build 0)  -->
<!DOCTYPE svg PUBLIC "-//W3C//DTD SVG 1.1//EN" "http://www.w3.org/Graphics/SVG/1.1/DTD/svg11.dtd">
<svg version="1.1" id="Capa_1" xmlns="http://www.w3.org/2000/svg" xmlns:xlink="http://www.w3.org/1999/xlink" x="0px" y="0px"
	 width="1024px" height="768px" viewBox="0 0 1024 768" enable-background="new 0 0 1024 768" xml:space="preserve">
<path fill="#797979" d="M820.168,383.511c0,174.147-140.971,315.319-314.864,315.319V68.192
	C679.197,68.192,820.168,209.365,820.168,383.511z"/>
<path fill="#C0C0C0" d="M505.304,68.192V698.83c-173.893,0-314.864-141.172-314.864-315.319
	C190.439,209.365,331.411,68.192,505.304,68.192z"/>
<rect x="362.629" y="239.598" fill="#EBEBEB" width="280.562" height="300.407"/>
<path fill="#006481" d="M675.802,190.005H334.791c-8.168,0-14.297,6.912-13.576,15.08l31.147,349.042
	c0.722,8.161,7.781,16.702,15.698,18.908l122.787,34.108c7.907,2.191,20.831,2.205,28.749,0.028l122.938-34.06
	c7.921-2.198,14.979-10.663,15.7-18.84l31.159-349.187C690.115,196.917,684.014,190.005,675.802,190.005z M616.663,315.999
	c-0.007,0.054-0.049,0.096-0.101,0.104c-0.054,0.009-0.104-0.018-0.129-0.068l-96.198,39.422c-1.371,0.561-2.152,2.015-1.867,3.468
	c0.285,1.452,1.561,2.501,3.041,2.501h74.828c3.98,0,7.773,1.69,10.435,4.65s3.941,6.912,3.518,10.869l-11.69,109.678
	c-0.574,5.381-4.189,9.953-9.295,11.75l-79.425,27.944c-2.991,1.056-6.253,1.063-9.251,0.022l-79.053-27.383
	c-5.136-1.779-8.782-6.366-9.36-11.77l-5.299-49.672c-0.279-2.608,0.563-5.21,2.317-7.16c1.753-1.951,4.251-3.064,6.874-3.064
	h21.999c4.727,0,8.692,3.564,9.192,8.265l3.252,30.532l54.737,19.025l54.986-19.199l6.726-63.322H411.426
	c-4.713,0-8.671-3.545-9.188-8.229l-2.96-26.837c-0.452-4.094,1.858-7.992,5.664-9.561l99.503-41.024
	c1.129-0.465,1.771-1.662,1.534-2.859s-1.286-2.059-2.507-2.059H398.708c-3.153,0-5.799-2.382-6.127-5.518l-3.031-28.846
	c-0.182-1.736,0.381-3.468,1.549-4.766c1.168-1.297,2.833-2.039,4.578-2.039h219.208c1.755,0,3.428,0.749,4.597,2.058
	c1.17,1.31,1.725,3.055,1.526,4.799L616.663,315.999z"/>
</svg>
